<svg width="210" height="210" viewBox="0 0 210 210" fill="none" xmlns="http://www.w3.org/2000/svg" shape-rendering="geometricPrecision">
<path d="M69.2011 180.594C66.9011 178.394 70.0011 163.494 74.2011 156.394C75.6011 153.994 81.5011 146.994 87.4011 140.894C93.2011 134.794 99.0011 128.194 100.301 126.194C103.401 121.194 106.201 112.594 107.101 105.694L107.801 99.8936L101.401 105.694C97.9011 108.894 89.9011 115.294 83.8011 119.894C77.6011 124.594 70.2011 131.194 67.4011 134.594C60.6011 142.594 59.8011 143.194 54.8011 143.294C51.6011 143.294 50.3011 142.794 49.5011 141.294C48.6011 139.694 47.4011 139.294 43.1011 139.294C37.4011 139.294 32.8011 136.994 29.3011 132.294C27.1011 129.294 25.4011 119.694 26.2011 114.794C27.3011 107.694 47.9011 68.2936 56.5011 56.7936C62.6011 48.5936 63.8011 45.5936 62.6011 42.0936C62.0011 40.3936 61.5011 36.3936 61.5011 33.0936C61.5011 27.8936 61.8011 27.0936 64.0011 26.0936C67.7011 24.3936 72.0011 26.6936 76.7011 32.9936C82.0011 39.9936 84.8011 40.1936 89.0011 33.6936C90.7011 31.0936 93.7011 27.7936 95.8011 26.1936C99.1011 23.7936 100.001 23.5936 102.001 24.4936C104.501 25.5936 107.501 31.6936 107.501 35.6936C107.501 37.8936 108.101 38.1936 113.801 39.1936C146.401 44.8936 167.401 65.8936 176.901 102.594C181.501 120.094 182.901 132.894 182.901 157.794L183.001 180.794L179.401 181.094L175.701 181.394L175.201 156.094C174.401 115.294 168.401 90.8936 154.001 70.7936C146.101 59.6936 132.401 49.5936 123.001 47.7936C120.101 47.2936 120.101 47.2936 122.501 48.3936C136.801 54.9936 138.401 55.9936 145.201 62.7936C150.901 68.5936 153.301 72.0936 157.401 80.3936C167.501 100.994 170.501 118.694 170.501 156.894V181.294H120.201C92.5011 181.294 69.5011 180.994 69.2011 180.594ZM44.9011 115.494C45.7011 114.194 43.8011 111.994 42.6011 112.694C41.0011 113.694 41.2011 116.294 42.9011 116.294C43.7011 116.294 44.6011 115.894 44.9011 115.494ZM69.2011 70.5936C73.6011 64.8936 74.5011 59.1936 70.3011 62.9936C68.2011 64.8936 65.5011 69.4936 65.5011 71.2936C65.5011 72.8936 67.6011 72.4936 69.2011 70.5936Z" fill="black"/>
<path d="M167.501 158.394C167.501 121.994 164.301 103.594 154.601 83.7936C146.601 67.5936 136.101 57.6936 121.401 52.3936C117.901 51.0936 114.901 49.9936 114.701 49.7936C114.601 49.6936 115.001 48.1936 115.601 46.4936C116.901 42.7936 118.501 42.4936 126.601 44.8936C151.701 52.2936 169.001 78.1936 176.001 118.994C177.901 129.794 179.201 156.594 178.701 171.094L178.301 181.294H172.901H167.501V158.394Z" fill="white"/>
<path d="M63.2011 75.4936C61.1011 73.1936 61.1011 70.0936 63.1011 65.9936C67.2011 57.9936 73.0011 55.0936 76.0011 59.5936C78.3011 63.1936 75.8011 70.1936 70.3011 75.2936C67.6011 77.7936 65.3011 77.8936 63.2011 75.4936Z" fill="white"/>
</svg>
